<?xml version="1.0" standalone="no"?>
<!DOCTYPE svg PUBLIC "-//W3C//DTD SVG 20010904//EN"
 "http://www.w3.org/TR/2001/REC-SVG-20010904/DTD/svg10.dtd">
<svg version="1.0" xmlns="http://www.w3.org/2000/svg"
 width="700.000000pt" height="700.000000pt" viewBox="0 0 700.000000 700.000000"
 preserveAspectRatio="xMidYMid meet">
<metadata>
Created by potrace 1.11, written by Peter Selinger 2001-2013
</metadata>
<g transform="translate(0.000000,700.000000) scale(0.100000,-0.100000)"
fill="#000000" stroke="none">
<path d="M2235 6988 c-96 -36 -159 -118 -171 -224 -5 -42 -18 -77 -44 -122
-51 -85 -80 -195 -80 -308 0 -113 18 -186 75 -299 26 -51 45 -104 45 -121 0
-18 -20 -68 -45 -116 -146 -274 -75 -525 156 -545 46 -5 66 -1 110 19 95 44
144 112 155 215 5 41 18 76 44 121 51 85 80 195 80 308 0 113 -18 186 -75 299
-26 51 -45 104 -45 121 0 18 20 68 45 116 147 277 73 531 -160 544 -33 2 -73
-1 -90 -8z"/>
<path d="M3485 6988 c-96 -36 -159 -118 -171 -224 -5 -42 -18 -77 -44 -122
-51 -85 -80 -195 -80 -308 0 -113 18 -186 75 -299 26 -51 45 -104 45 -121 0
-18 -20 -68 -45 -116 -146 -274 -75 -525 156 -545 46 -5 66 -1 110 19 95 44
144 112 155 215 5 41 18 76 44 121 51 85 80 195 80 308 0 113 -18 186 -75 299
-26 51 -45 104 -45 121 0 18 20 68 45 116 147 277 73 531 -160 544 -33 2 -73
-1 -90 -8z"/>
<path d="M4735 6988 c-96 -36 -159 -118 -171 -224 -5 -42 -18 -77 -44 -122
-51 -85 -80 -195 -80 -308 0 -113 18 -186 75 -299 26 -51 45 -104 45 -121 0
-18 -20 -68 -45 -116 -146 -274 -75 -525 156 -545 46 -5 66 -1 110 19 95 44
144 112 155 215 5 41 18 76 44 121 51 85 80 195 80 308 0 113 -18 186 -75 299
-26 51 -45 104 -45 121 0 18 20 68 45 116 147 277 73 531 -160 544 -33 2 -73
-1 -90 -8z"/>
<path d="M1167 4986 c-55 -20 -103 -61 -134 -114 l-28 -47 -3 -1070 c-2 -713
0 -1105 8 -1175 39 -385 182 -705 453 -1012 l59 -68 -658 0 c-710 -1 -698 0
-769 -54 -83 -64 -108 -162 -86 -340 35 -274 150 -517 340 -718 193 -204 470
-343 751 -378 117 -14 4683 -14 4800 0 132 17 265 56 385 114 265 129 456 318
585 581 65 132 93 221 115 365 30 190 14 281 -60 355 -77 77 -55 75 -792 75
l-654 0 76 88 c217 249 366 559 419 873 l6 36 88 6 c241 18 471 124 640 294
427 431 376 1141 -109 1502 -151 113 -333 182 -520 197 l-79 7 0 142 c0 170
-13 219 -75 280 -81 82 142 75 -2429 75 -1888 -1 -2298 -3 -2329 -14z m4333
-1403 c0 -979 -1 -1008 -50 -1183 -27 -97 -103 -256 -170 -356 -30 -43 -97
-122 -149 -175 -201 -200 -455 -325 -731 -359 -114 -14 -1686 -14 -1800 0
-276 34 -530 159 -731 359 -195 196 -312 426 -354 701 -12 78 -15 259 -15
1013 l0 917 2000 0 2000 0 0 -917z m667 387 c238 -83 380 -344 318 -585 -26
-99 -63 -165 -134 -235 -89 -88 -224 -150 -326 -150 l-25 0 0 501 0 502 56 -7
c30 -3 80 -15 111 -26z m273 -3016 c-75 -174 -245 -336 -426 -403 -140 -53
-30 -51 -2514 -51 -2495 0 -2384 -2 -2520 52 -181 72 -346 230 -420 402 l-19
46 2959 0 2959 0 -19 -46z"/>
<path d="M1917 4236 c-55 -20 -103 -61 -134 -114 -27 -46 -28 -52 -31 -221 -4
-193 3 -238 49 -301 113 -155 370 -117 432 65 24 69 24 351 0 420 -42 124
-191 195 -316 151z"/>
<path d="M1917 3236 c-55 -20 -103 -61 -134 -114 l-28 -47 -3 -300 c-3 -326 0
-357 49 -425 113 -155 370 -117 432 65 25 72 25 598 0 670 -42 124 -191 195
-316 151z"/>
</g>
</svg>
